<?xml version="1.0" encoding="UTF-8" standalone="no"?>
<svg xmlns="http://www.w3.org/2000/svg" xmlns:xlink="http://www.w3.org/1999/xlink" contentStyleType="text/css" height="1127px" preserveAspectRatio="none" style="width:826px;height:1127px;background:#FFFFFF;" version="1.1" viewBox="0 0 826 1127" width="826px" zoomAndPan="magnify"><defs/><g><rect fill="#FFFFFF" height="188.7969" style="stroke:#181818;stroke-width:1.0;" width="10" x="356.5" y="424.625"/><rect fill="#FFFFFF" height="130.5313" style="stroke:#181818;stroke-width:1.0;" width="10" x="356.5" y="833.3516"/><rect fill="#FFFFFF" height="29.1328" style="stroke:#181818;stroke-width:1.0;" width="10" x="670.5" y="222.8281"/><rect fill="#FFFFFF" height="29.1328" style="stroke:#181818;stroke-width:1.0;" width="10" x="670.5" y="281.0938"/><rect fill="#FFFFFF" height="71.2656" style="stroke:#181818;stroke-width:1.0;" width="10" x="670.5" y="339.3594"/><rect fill="#FFFFFF" height="29.1328" style="stroke:#181818;stroke-width:1.0;" width="10" x="670.5" y="453.7578"/><rect fill="#FFFFFF" height="29.1328" style="stroke:#181818;stroke-width:1.0;" width="10" x="670.5" y="512.0234"/><rect fill="#FFFFFF" height="29.1328" style="stroke:#181818;stroke-width:1.0;" width="10" x="670.5" y="570.2891"/><rect fill="#FFFFFF" height="29.1328" style="stroke:#181818;stroke-width:1.0;" width="10" x="670.5" y="673.6875"/><rect fill="#FFFFFF" height="29.1328" style="stroke:#181818;stroke-width:1.0;" width="10" x="670.5" y="731.9531"/><rect fill="#FFFFFF" height="29.1328" style="stroke:#181818;stroke-width:1.0;" width="10" x="670.5" y="790.2188"/><rect fill="#FFFFFF" height="29.1328" style="stroke:#181818;stroke-width:1.0;" width="10" x="670.5" y="862.4844"/><rect fill="#FFFFFF" height="29.1328" style="stroke:#181818;stroke-width:1.0;" width="10" x="670.5" y="920.75"/><rect fill="#FFFFFF" height="29.1328" style="stroke:#181818;stroke-width:1.0;" width="10" x="670.5" y="1000.0156"/><rect fill="none" height="436.8594" style="stroke:#000000;stroke-width:1.5;" width="810.5" x="10" y="184.5625"/><rect fill="none" height="336.4609" style="stroke:#000000;stroke-width:1.5;" width="697" x="10" y="635.4219"/><line style="stroke:#181818;stroke-width:0.5;stroke-dasharray:5.0,5.0;" x1="38" x2="38" y1="81.2969" y2="1047.1484"/><line style="stroke:#181818;stroke-width:0.5;stroke-dasharray:5.0,5.0;" x1="361.5" x2="361.5" y1="81.2969" y2="1047.1484"/><line style="stroke:#181818;stroke-width:0.5;stroke-dasharray:5.0,5.0;" x1="675" x2="675" y1="81.2969" y2="1047.1484"/><text fill="#000000" font-family="sans-serif" font-size="14" lengthAdjust="spacing" textLength="31" x="20" y="77.9951">User</text><ellipse cx="38.5" cy="13.5" fill="#E2E2F0" rx="8" ry="8" style="stroke:#181818;stroke-width:0.5;"/><path d="M38.5,21.5 L38.5,48.5 M25.5,29.5 L51.5,29.5 M38.5,48.5 L25.5,63.5 M38.5,48.5 L51.5,63.5 " fill="none" style="stroke:#181818;stroke-width:0.5;"/><text fill="#000000" font-family="sans-serif" font-size="14" lengthAdjust="spacing" textLength="31" x="20" y="1059.1436">User</text><ellipse cx="38.5" cy="1070.9453" fill="#E2E2F0" rx="8" ry="8" style="stroke:#181818;stroke-width:0.5;"/><path d="M38.5,1078.9453 L38.5,1105.9453 M25.5,1086.9453 L51.5,1086.9453 M38.5,1105.9453 L25.5,1120.9453 M38.5,1105.9453 L51.5,1120.9453 " fill="none" style="stroke:#181818;stroke-width:0.5;"/><rect fill="#E2E2F0" height="30.2969" rx="2.5" ry="2.5" style="stroke:#181818;stroke-width:0.5;" width="68" x="327.5" y="50"/><text fill="#000000" font-family="sans-serif" font-size="14" lengthAdjust="spacing" textLength="54" x="334.5" y="69.9951">Partner</text><rect fill="#E2E2F0" height="30.2969" rx="2.5" ry="2.5" style="stroke:#181818;stroke-width:0.5;" width="68" x="327.5" y="1046.1484"/><text fill="#000000" font-family="sans-serif" font-size="14" lengthAdjust="spacing" textLength="54" x="334.5" y="1066.1436">Partner</text><rect fill="#FF4612" height="30.2969" rx="2.5" ry="2.5" style="stroke:#181818;stroke-width:0.5;" width="43" x="654" y="50"/><text fill="#000000" font-family="sans-serif" font-size="14" lengthAdjust="spacing" textLength="29" x="661" y="69.9951">CSC</text><rect fill="#FF4612" height="30.2969" rx="2.5" ry="2.5" style="stroke:#181818;stroke-width:0.5;" width="43" x="654" y="1046.1484"/><text fill="#000000" font-family="sans-serif" font-size="14" lengthAdjust="spacing" textLength="29" x="661" y="1066.1436">CSC</text><rect fill="#FFFFFF" height="188.7969" style="stroke:#181818;stroke-width:1.0;" width="10" x="356.5" y="424.625"/><rect fill="#FFFFFF" height="130.5313" style="stroke:#181818;stroke-width:1.0;" width="10" x="356.5" y="833.3516"/><rect fill="#FFFFFF" height="29.1328" style="stroke:#181818;stroke-width:1.0;" width="10" x="670.5" y="222.8281"/><rect fill="#FFFFFF" height="29.1328" style="stroke:#181818;stroke-width:1.0;" width="10" x="670.5" y="281.0938"/><rect fill="#FFFFFF" height="71.2656" style="stroke:#181818;stroke-width:1.0;" width="10" x="670.5" y="339.3594"/><rect fill="#FFFFFF" height="29.1328" style="stroke:#181818;stroke-width:1.0;" width="10" x="670.5" y="453.7578"/><rect fill="#FFFFFF" height="29.1328" style="stroke:#181818;stroke-width:1.0;" width="10" x="670.5" y="512.0234"/><rect fill="#FFFFFF" height="29.1328" style="stroke:#181818;stroke-width:1.0;" width="10" x="670.5" y="570.2891"/><rect fill="#FFFFFF" height="29.1328" style="stroke:#181818;stroke-width:1.0;" width="10" x="670.5" y="673.6875"/><rect fill="#FFFFFF" height="29.1328" style="stroke:#181818;stroke-width:1.0;" width="10" x="670.5" y="731.9531"/><rect fill="#FFFFFF" height="29.1328" style="stroke:#181818;stroke-width:1.0;" width="10" x="670.5" y="790.2188"/><rect fill="#FFFFFF" height="29.1328" style="stroke:#181818;stroke-width:1.0;" width="10" x="670.5" y="862.4844"/><rect fill="#FFFFFF" height="29.1328" style="stroke:#181818;stroke-width:1.0;" width="10" x="670.5" y="920.75"/><rect fill="#FFFFFF" height="29.1328" style="stroke:#181818;stroke-width:1.0;" width="10" x="670.5" y="1000.0156"/><polygon fill="#181818" points="663.5,108.4297,673.5,112.4297,663.5,116.4297,667.5,112.4297" style="stroke:#181818;stroke-width:1.0;"/><line style="stroke:#181818;stroke-width:1.0;" x1="361.5" x2="669.5" y1="112.4297" y2="112.4297"/><text fill="#000000" font-family="sans-serif" font-size="13" lengthAdjust="spacing" textLength="24" x="368.5" y="107.3638">Info</text><polygon fill="#181818" points="372.5,122.4297,362.5,126.4297,372.5,130.4297,368.5,126.4297" style="stroke:#181818;stroke-width:1.0;"/><line style="stroke:#181818;stroke-width:1.0;stroke-dasharray:2.0,2.0;" x1="366.5" x2="674.5" y1="126.4297" y2="126.4297"/><polygon fill="#181818" points="349.5,151.5625,359.5,155.5625,349.5,159.5625,353.5,155.5625" style="stroke:#181818;stroke-width:1.0;"/><line style="stroke:#181818;stroke-width:1.0;" x1="38.5" x2="355.5" y1="155.5625" y2="155.5625"/><text fill="#000000" font-family="sans-serif" font-size="13" lengthAdjust="spacing" textLength="299" x="45.5" y="150.4966">Internal interactions between User and Partner</text><polygon fill="#181818" points="49.5,165.5625,39.5,169.5625,49.5,173.5625,45.5,169.5625" style="stroke:#181818;stroke-width:1.0;"/><line style="stroke:#181818;stroke-width:1.0;stroke-dasharray:2.0,2.0;" x1="43.5" x2="360.5" y1="169.5625" y2="169.5625"/><path d="M10,184.5625 L115,184.5625 L115,191.6953 L105,201.6953 L10,201.6953 L10,184.5625 " fill="#EEEEEE" style="stroke:#000000;stroke-width:1.5;"/><rect fill="none" height="436.8594" style="stroke:#000000;stroke-width:1.5;" width="810.5" x="10" y="184.5625"/><text fill="#000000" font-family="sans-serif" font-size="13" font-weight="bold" lengthAdjust="spacing" textLength="60" x="25" y="197.6294">Dance 1</text><polygon fill="#181818" points="658.5,218.8281,668.5,222.8281,658.5,226.8281,662.5,222.8281" style="stroke:#181818;stroke-width:1.0;"/><line style="stroke:#181818;stroke-width:1.0;" x1="38.5" x2="664.5" y1="222.8281" y2="222.8281"/><text fill="#000000" font-family="sans-serif" font-size="13" lengthAdjust="spacing" textLength="215" x="45.5" y="217.7622">OAuth2/Authorize (scope service)</text><polygon fill="#181818" points="49.5,247.9609,39.5,251.9609,49.5,255.9609,45.5,251.9609" style="stroke:#181818;stroke-width:1.0;"/><line style="stroke:#181818;stroke-width:1.0;stroke-dasharray:2.0,2.0;" x1="43.5" x2="674.5" y1="251.9609" y2="251.9609"/><text fill="#000000" font-family="sans-serif" font-size="13" lengthAdjust="spacing" textLength="24" x="55.5" y="246.895">302</text><polygon fill="#181818" points="658.5,277.0938,668.5,281.0938,658.5,285.0938,662.5,281.0938" style="stroke:#181818;stroke-width:1.0;"/><line style="stroke:#181818;stroke-width:1.0;" x1="38.5" x2="664.5" y1="281.0938" y2="281.0938"/><text fill="#000000" font-family="sans-serif" font-size="13" lengthAdjust="spacing" textLength="146" x="45.5" y="276.0278">Redirect to itsme page</text><polygon fill="#181818" points="49.5,306.2266,39.5,310.2266,49.5,314.2266,45.5,310.2266" style="stroke:#181818;stroke-width:1.0;"/><line style="stroke:#181818;stroke-width:1.0;stroke-dasharray:2.0,2.0;" x1="43.5" x2="674.5" y1="310.2266" y2="310.2266"/><text fill="#000000" font-family="sans-serif" font-size="13" lengthAdjust="spacing" textLength="24" x="55.5" y="305.1606">302</text><polygon fill="#181818" points="658.5,335.3594,668.5,339.3594,658.5,343.3594,662.5,339.3594" style="stroke:#181818;stroke-width:1.0;"/><line style="stroke:#181818;stroke-width:1.0;" x1="38.5" x2="664.5" y1="339.3594" y2="339.3594"/><text fill="#000000" font-family="sans-serif" font-size="13" lengthAdjust="spacing" textLength="220" x="45.5" y="334.2935">Redirect response of itsme to CSC</text><line style="stroke:#181818;stroke-width:1.0;" x1="680.5" x2="722.5" y1="368.4922" y2="368.4922"/><line style="stroke:#181818;stroke-width:1.0;" x1="722.5" x2="722.5" y1="368.4922" y2="381.4922"/><line style="stroke:#181818;stroke-width:1.0;" x1="681.5" x2="722.5" y1="381.4922" y2="381.4922"/><polygon fill="#181818" points="691.5,377.4922,681.5,381.4922,691.5,385.4922,687.5,381.4922" style="stroke:#181818;stroke-width:1.0;"/><text fill="#000000" font-family="sans-serif" font-size="13" lengthAdjust="spacing" textLength="121" x="687.5" y="363.4263">Internal processing</text><polygon fill="#181818" points="49.5,406.625,39.5,410.625,49.5,414.625,45.5,410.625" style="stroke:#181818;stroke-width:1.0;"/><line style="stroke:#181818;stroke-width:1.0;stroke-dasharray:2.0,2.0;" x1="43.5" x2="674.5" y1="410.625" y2="410.625"/><text fill="#000000" font-family="sans-serif" font-size="13" lengthAdjust="spacing" textLength="24" x="55.5" y="405.5591">302</text><polygon fill="#181818" points="344.5,420.625,354.5,424.625,344.5,428.625,348.5,424.625" style="stroke:#181818;stroke-width:1.0;"/><line style="stroke:#181818;stroke-width:1.0;" x1="38.5" x2="350.5" y1="424.625" y2="424.625"/><polygon fill="#181818" points="658.5,449.7578,668.5,453.7578,658.5,457.7578,662.5,453.7578" style="stroke:#181818;stroke-width:1.0;"/><line style="stroke:#181818;stroke-width:1.0;" x1="366.5" x2="664.5" y1="453.7578" y2="453.7578"/><text fill="#000000" font-family="sans-serif" font-size="13" lengthAdjust="spacing" textLength="91" x="373.5" y="448.6919">OAuth2/Token</text><polygon fill="#181818" points="377.5,478.8906,367.5,482.8906,377.5,486.8906,373.5,482.8906" style="stroke:#181818;stroke-width:1.0;"/><line style="stroke:#181818;stroke-width:1.0;stroke-dasharray:2.0,2.0;" x1="371.5" x2="674.5" y1="482.8906" y2="482.8906"/><text fill="#000000" font-family="sans-serif" font-size="13" lengthAdjust="spacing" textLength="112" x="383.5" y="477.8247">Return JWT token</text><polygon fill="#181818" points="658.5,508.0234,668.5,512.0234,658.5,516.0234,662.5,512.0234" style="stroke:#181818;stroke-width:1.0;"/><line style="stroke:#181818;stroke-width:1.0;" x1="366.5" x2="664.5" y1="512.0234" y2="512.0234"/><text fill="#000000" font-family="sans-serif" font-size="13" lengthAdjust="spacing" textLength="98" x="373.5" y="506.9575">Credentials/List</text><polygon fill="#181818" points="377.5,537.1563,367.5,541.1563,377.5,545.1563,373.5,541.1563" style="stroke:#181818;stroke-width:1.0;"/><line style="stroke:#181818;stroke-width:1.0;stroke-dasharray:2.0,2.0;" x1="371.5" x2="674.5" y1="541.1563" y2="541.1563"/><text fill="#000000" font-family="sans-serif" font-size="13" lengthAdjust="spacing" textLength="123" x="383.5" y="536.0903">Return CredentialId</text><polygon fill="#181818" points="658.5,566.2891,668.5,570.2891,658.5,574.2891,662.5,570.2891" style="stroke:#181818;stroke-width:1.0;"/><line style="stroke:#181818;stroke-width:1.0;" x1="366.5" x2="664.5" y1="570.2891" y2="570.2891"/><text fill="#000000" font-family="sans-serif" font-size="13" lengthAdjust="spacing" textLength="100" x="373.5" y="565.2231">Credentials/Info</text><polygon fill="#181818" points="377.5,595.4219,367.5,599.4219,377.5,603.4219,373.5,599.4219" style="stroke:#181818;stroke-width:1.0;"/><line style="stroke:#181818;stroke-width:1.0;" x1="371.5" x2="674.5" y1="599.4219" y2="599.4219"/><text fill="#000000" font-family="sans-serif" font-size="13" lengthAdjust="spacing" textLength="111" x="383.5" y="594.356">Return certificate</text><polygon fill="#181818" points="49.5,609.4219,39.5,613.4219,49.5,617.4219,45.5,613.4219" style="stroke:#181818;stroke-width:1.0;"/><line style="stroke:#181818;stroke-width:1.0;stroke-dasharray:2.0,2.0;" x1="43.5" x2="360.5" y1="613.4219" y2="613.4219"/><path d="M10,635.4219 L115,635.4219 L115,642.5547 L105,652.5547 L10,652.5547 L10,635.4219 " fill="#EEEEEE" style="stroke:#000000;stroke-width:1.5;"/><rect fill="none" height="336.4609" style="stroke:#000000;stroke-width:1.5;" width="697" x="10" y="635.4219"/><text fill="#000000" font-family="sans-serif" font-size="13" font-weight="bold" lengthAdjust="spacing" textLength="60" x="25" y="648.4888">Dance 2</text><polygon fill="#181818" points="658.5,669.6875,668.5,673.6875,658.5,677.6875,662.5,673.6875" style="stroke:#181818;stroke-width:1.0;"/><line style="stroke:#181818;stroke-width:1.0;" x1="38.5" x2="664.5" y1="673.6875" y2="673.6875"/><text fill="#000000" font-family="sans-serif" font-size="13" lengthAdjust="spacing" textLength="113" x="45.5" y="668.6216">OAuth2/Authorize</text><polygon fill="#181818" points="49.5,698.8203,39.5,702.8203,49.5,706.8203,45.5,702.8203" style="stroke:#181818;stroke-width:1.0;"/><line style="stroke:#181818;stroke-width:1.0;stroke-dasharray:2.0,2.0;" x1="43.5" x2="674.5" y1="702.8203" y2="702.8203"/><text fill="#000000" font-family="sans-serif" font-size="13" lengthAdjust="spacing" textLength="24" x="55.5" y="697.7544">302</text><polygon fill="#181818" points="658.5,727.9531,668.5,731.9531,658.5,735.9531,662.5,731.9531" style="stroke:#181818;stroke-width:1.0;"/><line style="stroke:#181818;stroke-width:1.0;" x1="38.5" x2="664.5" y1="731.9531" y2="731.9531"/><text fill="#000000" font-family="sans-serif" font-size="13" lengthAdjust="spacing" textLength="146" x="45.5" y="726.8872">Redirect to itsme page</text><polygon fill="#181818" points="49.5,757.0859,39.5,761.0859,49.5,765.0859,45.5,761.0859" style="stroke:#181818;stroke-width:1.0;"/><line style="stroke:#181818;stroke-width:1.0;stroke-dasharray:2.0,2.0;" x1="43.5" x2="674.5" y1="761.0859" y2="761.0859"/><text fill="#000000" font-family="sans-serif" font-size="13" lengthAdjust="spacing" textLength="24" x="55.5" y="756.02">302</text><polygon fill="#181818" points="658.5,786.2188,668.5,790.2188,658.5,794.2188,662.5,790.2188" style="stroke:#181818;stroke-width:1.0;"/><line style="stroke:#181818;stroke-width:1.0;" x1="38.5" x2="664.5" y1="790.2188" y2="790.2188"/><text fill="#000000" font-family="sans-serif" font-size="13" lengthAdjust="spacing" textLength="220" x="45.5" y="785.1528">Redirect response of itsme to CSC</text><polygon fill="#181818" points="49.5,815.3516,39.5,819.3516,49.5,823.3516,45.5,819.3516" style="stroke:#181818;stroke-width:1.0;"/><line style="stroke:#181818;stroke-width:1.0;stroke-dasharray:2.0,2.0;" x1="43.5" x2="674.5" y1="819.3516" y2="819.3516"/><text fill="#000000" font-family="sans-serif" font-size="13" lengthAdjust="spacing" textLength="24" x="55.5" y="814.2856">302</text><polygon fill="#181818" points="344.5,829.3516,354.5,833.3516,344.5,837.3516,348.5,833.3516" style="stroke:#181818;stroke-width:1.0;"/><line style="stroke:#181818;stroke-width:1.0;" x1="38.5" x2="350.5" y1="833.3516" y2="833.3516"/><polygon fill="#181818" points="658.5,858.4844,668.5,862.4844,658.5,866.4844,662.5,862.4844" style="stroke:#181818;stroke-width:1.0;"/><line style="stroke:#181818;stroke-width:1.0;" x1="366.5" x2="664.5" y1="862.4844" y2="862.4844"/><text fill="#000000" font-family="sans-serif" font-size="13" lengthAdjust="spacing" textLength="91" x="373.5" y="857.4185">OAuth2/Token</text><polygon fill="#181818" points="377.5,887.6172,367.5,891.6172,377.5,895.6172,373.5,891.6172" style="stroke:#181818;stroke-width:1.0;"/><line style="stroke:#181818;stroke-width:1.0;stroke-dasharray:2.0,2.0;" x1="371.5" x2="674.5" y1="891.6172" y2="891.6172"/><text fill="#000000" font-family="sans-serif" font-size="13" lengthAdjust="spacing" textLength="112" x="383.5" y="886.5513">Return JWT token</text><polygon fill="#181818" points="658.5,916.75,668.5,920.75,658.5,924.75,662.5,920.75" style="stroke:#181818;stroke-width:1.0;"/><line style="stroke:#181818;stroke-width:1.0;" x1="366.5" x2="664.5" y1="920.75" y2="920.75"/><text fill="#000000" font-family="sans-serif" font-size="13" lengthAdjust="spacing" textLength="131" x="373.5" y="915.6841">Signatures/SignHash</text><polygon fill="#181818" points="377.5,945.8828,367.5,949.8828,377.5,953.8828,373.5,949.8828" style="stroke:#181818;stroke-width:1.0;"/><line style="stroke:#181818;stroke-width:1.0;stroke-dasharray:2.0,2.0;" x1="371.5" x2="674.5" y1="949.8828" y2="949.8828"/><text fill="#000000" font-family="sans-serif" font-size="13" lengthAdjust="spacing" textLength="280" x="383.5" y="944.8169">Return result set with signature(s) of doc(s)</text><polygon fill="#181818" points="49.5,959.8828,39.5,963.8828,49.5,967.8828,45.5,963.8828" style="stroke:#181818;stroke-width:1.0;"/><line style="stroke:#181818;stroke-width:1.0;stroke-dasharray:2.0,2.0;" x1="43.5" x2="360.5" y1="963.8828" y2="963.8828"/><polygon fill="#181818" points="658.5,996.0156,668.5,1000.0156,658.5,1004.0156,662.5,1000.0156" style="stroke:#181818;stroke-width:1.0;"/><line style="stroke:#181818;stroke-width:1.0;" x1="38.5" x2="664.5" y1="1000.0156" y2="1000.0156"/><text fill="#000000" font-family="sans-serif" font-size="13" lengthAdjust="spacing" textLength="78" x="45.5" y="994.9497">Auth/revoke</text><polygon fill="#181818" points="49.5,1025.1484,39.5,1029.1484,49.5,1033.1484,45.5,1029.1484" style="stroke:#181818;stroke-width:1.0;"/><line style="stroke:#181818;stroke-width:1.0;stroke-dasharray:2.0,2.0;" x1="43.5" x2="674.5" y1="1029.1484" y2="1029.1484"/><text fill="#000000" font-family="sans-serif" font-size="13" lengthAdjust="spacing" textLength="71" x="55.5" y="1024.0825">Return 204</text><!--MD5=[8942cfcb1f0cc29ab889e6189e958b83]
@startuml
actor User

participant Partner
participant CSC #FF4612

Partner -> CSC : Info
CSC - -> Partner

User -> Partner : Internal interactions between User and Partner
Partner - -> User

group Dance 1
  User -> CSC ++: OAuth2/Authorize (scope service)
  CSC - -> User - -: 302

  User -> CSC ++: Redirect to itsme page
  CSC - -> User - -: 302

  User -> CSC ++: Redirect response of itsme to CSC
  CSC -> CSC : Internal processing

  CSC - -> User - - : 302

  User -> Partner ++
    Partner -> CSC ++: OAuth2/Token
    CSC - -> Partner - -: Return JWT token

    Partner -> CSC ++: Credentials/List
    CSC - -> Partner - -: Return CredentialId

    Partner -> CSC ++: Credentials/Info
    CSC -> Partner - -: Return certificate
  Partner - -> User - -
end

group Dance 2
  User -> CSC ++: OAuth2/Authorize
  CSC - -> User - -: 302

  User -> CSC ++: Redirect to itsme page
  CSC - -> User - -: 302

  User -> CSC ++: Redirect response of itsme to CSC
  CSC - -> User - -: 302

  User -> Partner ++
    Partner -> CSC ++: OAuth2/Token
    CSC - -> Partner - -: Return JWT token

    Partner -> CSC ++: Signatures/SignHash
    CSC - -> Partner - -: Return result set with signature(s) of doc(s)
  Partner - -> User - -
end

User -> CSC ++: Auth/revoke
CSC - -> User - -: Return 204
@enduml

PlantUML version 1.2022.8beta2(Unknown compile time)
(GPL source distribution)
Java Runtime: Java(TM) SE Runtime Environment
JVM: Java HotSpot(TM) 64-Bit Server VM
Default Encoding: UTF-8
Language: en
Country: US
--></g></svg>