<svg width="269" height="56" viewBox="0 0 269 56" fill="none" xmlns="http://www.w3.org/2000/svg">
<g clip-path="url(#clip0_815_2965)">
<path d="M257 0H12C5.37258 0 0 5.37258 0 12V44C0 50.6274 5.37258 56 12 56H257C263.627 56 269 50.6274 269 44V12C269 5.37258 263.627 0 257 0Z" fill="#FF4612"/>
<path d="M80.7129 36.1846C79.7695 36.1846 78.9111 36.0791 78.1377 35.8682C77.3643 35.6572 76.6025 35.291 75.8525 34.7695V31.6758H77.8389L78.1113 33.4951C78.375 33.7178 78.7383 33.8994 79.2012 34.04C79.6641 34.1748 80.168 34.2422 80.7129 34.2422C81.1758 34.2422 81.5654 34.1777 81.8818 34.0488C82.2041 33.9199 82.4473 33.7383 82.6113 33.5039C82.7812 33.2637 82.8662 32.9824 82.8662 32.6602C82.8662 32.3555 82.79 32.0859 82.6377 31.8516C82.4912 31.6113 82.2451 31.3945 81.8994 31.2012C81.5596 31.002 81.0967 30.8115 80.5107 30.6299C79.4971 30.3311 78.6562 30.0059 77.9883 29.6543C77.3262 29.2969 76.8281 28.8721 76.4941 28.3799C76.166 27.8818 76.002 27.2842 76.002 26.5869C76.002 25.8955 76.1924 25.2861 76.5732 24.7588C76.96 24.2256 77.4932 23.8066 78.1729 23.502C78.8525 23.1973 79.6377 23.0391 80.5283 23.0273C81.5127 23.0156 82.3828 23.1328 83.1387 23.3789C83.9004 23.625 84.5566 23.9678 85.1074 24.4072V27.29H83.1826L82.8486 25.5322C82.626 25.3916 82.3242 25.2686 81.9434 25.1631C81.5684 25.0576 81.1406 25.0049 80.6602 25.0049C80.25 25.0049 79.8867 25.0664 79.5703 25.1895C79.2598 25.3125 79.0137 25.4912 78.832 25.7256C78.6504 25.96 78.5596 26.2441 78.5596 26.5781C78.5596 26.8652 78.6387 27.1172 78.7969 27.334C78.9551 27.5449 79.2188 27.7471 79.5879 27.9404C79.9629 28.1279 80.4785 28.3301 81.1348 28.5469C82.5469 28.9395 83.6162 29.458 84.3428 30.1025C85.0752 30.7471 85.4414 31.5938 85.4414 32.6426C85.4414 33.3691 85.2451 33.999 84.8525 34.5322C84.46 35.0596 83.9092 35.4668 83.2002 35.7539C82.4912 36.041 81.6621 36.1846 80.7129 36.1846ZM86.3818 36V34.4619L87.6211 34.1982V24.0996L86.25 23.8359V22.2891H90.1787V27.7031C90.4775 27.2637 90.8467 26.9238 91.2861 26.6836C91.7314 26.4375 92.2354 26.3145 92.7979 26.3145C93.7529 26.3145 94.5088 26.6338 95.0654 27.2725C95.6279 27.9053 95.9092 28.8867 95.9092 30.2168V34.1982L97.1396 34.4619V36H92.2354V34.4619L93.3428 34.1982V30.1992C93.3428 29.5137 93.2139 29.0273 92.9561 28.7402C92.6982 28.4531 92.3203 28.3096 91.8223 28.3096C91.4766 28.3096 91.1602 28.3828 90.873 28.5293C90.5918 28.6699 90.3604 28.8779 90.1787 29.1533V34.1982L91.2861 34.4619V36H86.3818ZM101.147 36.1846C100.204 36.1846 99.4541 35.9326 98.8975 35.4287C98.3408 34.9189 98.0625 34.2275 98.0625 33.3545C98.0625 32.458 98.4258 31.7314 99.1523 31.1748C99.8789 30.6123 100.942 30.3311 102.343 30.3311H103.6V29.6279C103.6 29.1709 103.465 28.8018 103.195 28.5205C102.932 28.2334 102.533 28.0898 102 28.0898C101.725 28.0898 101.479 28.125 101.262 28.1953C101.045 28.2598 100.846 28.3535 100.664 28.4766L100.462 29.7334H98.6162L98.5811 27.2637C99.0791 26.9824 99.6182 26.7539 100.198 26.5781C100.778 26.4023 101.426 26.3145 102.141 26.3145C103.383 26.3145 104.364 26.6045 105.085 27.1846C105.806 27.7588 106.166 28.582 106.166 29.6543V33.5742C106.166 33.7031 106.166 33.832 106.166 33.9609C106.172 34.084 106.184 34.2041 106.201 34.3213L107.194 34.4619V36H104.013C103.948 35.8359 103.884 35.6602 103.819 35.4727C103.755 35.2852 103.708 35.0977 103.679 34.9102C103.374 35.2969 103.014 35.6074 102.598 35.8418C102.188 36.0703 101.704 36.1846 101.147 36.1846ZM101.833 34.2861C102.19 34.2861 102.53 34.207 102.853 34.0488C103.175 33.8848 103.424 33.6709 103.6 33.4072V31.9043H102.334C101.771 31.9043 101.344 32.0332 101.051 32.291C100.764 32.5488 100.62 32.8594 100.62 33.2227C100.62 33.5625 100.726 33.8262 100.937 34.0137C101.153 34.1953 101.452 34.2861 101.833 34.2861ZM108.302 36V34.4619L109.532 34.1982V28.3008L108.17 28.0371V26.4902H111.923L112.02 27.668L112.037 27.8789C112.271 27.3633 112.562 26.9736 112.907 26.71C113.253 26.4463 113.666 26.3145 114.146 26.3145C114.299 26.3145 114.466 26.3291 114.647 26.3584C114.829 26.3818 114.99 26.4141 115.131 26.4551L114.858 28.8193L113.584 28.749C113.221 28.7314 112.925 28.793 112.696 28.9336C112.474 29.0742 112.274 29.2764 112.099 29.54V34.1982L113.329 34.4619V36H108.302ZM120.272 36.1846C119.364 36.1846 118.57 35.9854 117.891 35.5869C117.211 35.1826 116.684 34.6289 116.309 33.9258C115.939 33.2227 115.755 32.4199 115.755 31.5176V31.166C115.755 30.2227 115.931 29.3877 116.282 28.6611C116.634 27.9287 117.129 27.3545 117.768 26.9385C118.412 26.5225 119.171 26.3145 120.044 26.3145C120.905 26.3145 121.629 26.4844 122.215 26.8242C122.801 27.1641 123.246 27.6533 123.551 28.292C123.855 28.9307 124.008 29.7041 124.008 30.6123V32.0098H118.418L118.4 32.0625C118.436 32.4785 118.538 32.8506 118.708 33.1787C118.884 33.501 119.13 33.7559 119.446 33.9434C119.763 34.125 120.146 34.2158 120.598 34.2158C121.066 34.2158 121.503 34.1572 121.907 34.04C122.317 33.917 122.716 33.7383 123.103 33.5039L123.797 35.0859C123.404 35.4023 122.909 35.666 122.312 35.877C121.72 36.082 121.04 36.1846 120.272 36.1846ZM118.436 30.3135H121.608V30.085C121.608 29.6982 121.556 29.3672 121.45 29.0918C121.351 28.8105 121.187 28.5938 120.958 28.4414C120.735 28.2891 120.445 28.2129 120.088 28.2129C119.748 28.2129 119.461 28.3037 119.227 28.4854C118.992 28.6611 118.808 28.9043 118.673 29.2148C118.544 29.5254 118.456 29.877 118.409 30.2695L118.436 30.3135ZM133.263 36.1846C132.507 36.1846 131.856 35.9912 131.312 35.6045C130.772 35.2119 130.359 34.667 130.072 33.9697C129.785 33.2666 129.642 32.4463 129.642 31.5088V31.3242C129.642 30.3223 129.785 29.4463 130.072 28.6963C130.365 27.9463 130.781 27.3633 131.32 26.9473C131.859 26.5254 132.504 26.3145 133.254 26.3145C133.775 26.3145 134.232 26.4199 134.625 26.6309C135.018 26.8359 135.357 27.1289 135.645 27.5098V24.0996L134.273 23.8359V22.2891H135.645H138.211V34.1982L139.441 34.4619V36H135.987L135.794 34.8398C135.495 35.2793 135.138 35.6133 134.722 35.8418C134.312 36.0703 133.825 36.1846 133.263 36.1846ZM134.027 34.1895C134.385 34.1895 134.698 34.1133 134.968 33.9609C135.237 33.8086 135.463 33.5889 135.645 33.3018V29.2676C135.469 28.9629 135.246 28.7285 134.977 28.5645C134.707 28.3945 134.396 28.3096 134.045 28.3096C133.617 28.3096 133.266 28.4385 132.99 28.6963C132.721 28.9482 132.521 29.2998 132.393 29.751C132.27 30.2021 132.208 30.7266 132.208 31.3242V31.5088C132.208 32.3408 132.349 32.9971 132.63 33.4775C132.911 33.9521 133.377 34.1895 134.027 34.1895ZM143.44 36.1846C142.497 36.1846 141.747 35.9326 141.19 35.4287C140.634 34.9189 140.355 34.2275 140.355 33.3545C140.355 32.458 140.719 31.7314 141.445 31.1748C142.172 30.6123 143.235 30.3311 144.636 30.3311H145.893V29.6279C145.893 29.1709 145.758 28.8018 145.488 28.5205C145.225 28.2334 144.826 28.0898 144.293 28.0898C144.018 28.0898 143.771 28.125 143.555 28.1953C143.338 28.2598 143.139 28.3535 142.957 28.4766L142.755 29.7334H140.909L140.874 27.2637C141.372 26.9824 141.911 26.7539 142.491 26.5781C143.071 26.4023 143.719 26.3145 144.434 26.3145C145.676 26.3145 146.657 26.6045 147.378 27.1846C148.099 27.7588 148.459 28.582 148.459 29.6543V33.5742C148.459 33.7031 148.459 33.832 148.459 33.9609C148.465 34.084 148.477 34.2041 148.494 34.3213L149.487 34.4619V36H146.306C146.241 35.8359 146.177 35.6602 146.112 35.4727C146.048 35.2852 146.001 35.0977 145.972 34.9102C145.667 35.2969 145.307 35.6074 144.891 35.8418C144.48 36.0703 143.997 36.1846 143.44 36.1846ZM144.126 34.2861C144.483 34.2861 144.823 34.207 145.146 34.0488C145.468 33.8848 145.717 33.6709 145.893 33.4072V31.9043H144.627C144.064 31.9043 143.637 32.0332 143.344 32.291C143.057 32.5488 142.913 32.8594 142.913 33.2227C142.913 33.5625 143.019 33.8262 143.229 34.0137C143.446 34.1953 143.745 34.2861 144.126 34.2861ZM153.82 36.1846C152.936 36.1846 152.253 35.9414 151.772 35.4551C151.298 34.9688 151.061 34.1982 151.061 33.1436V28.292H149.751V26.4902H151.061V24.1611H153.618V26.4902H155.367V28.292H153.618V33.1348C153.618 33.5039 153.694 33.7676 153.847 33.9258C154.005 34.084 154.219 34.1631 154.488 34.1631C154.635 34.1631 154.787 34.1543 154.945 34.1367C155.109 34.1133 155.25 34.0898 155.367 34.0664L155.587 35.9209C155.323 35.9971 155.036 36.0586 154.726 36.1055C154.421 36.1582 154.119 36.1846 153.82 36.1846ZM159.735 36.1846C158.792 36.1846 158.042 35.9326 157.485 35.4287C156.929 34.9189 156.65 34.2275 156.65 33.3545C156.65 32.458 157.014 31.7314 157.74 31.1748C158.467 30.6123 159.53 30.3311 160.931 30.3311H162.188V29.6279C162.188 29.1709 162.053 28.8018 161.783 28.5205C161.52 28.2334 161.121 28.0898 160.588 28.0898C160.312 28.0898 160.066 28.125 159.85 28.1953C159.633 28.2598 159.434 28.3535 159.252 28.4766L159.05 29.7334H157.204L157.169 27.2637C157.667 26.9824 158.206 26.7539 158.786 26.5781C159.366 26.4023 160.014 26.3145 160.729 26.3145C161.971 26.3145 162.952 26.6045 163.673 27.1846C164.394 27.7588 164.754 28.582 164.754 29.6543V33.5742C164.754 33.7031 164.754 33.832 164.754 33.9609C164.76 34.084 164.771 34.2041 164.789 34.3213L165.782 34.4619V36H162.601C162.536 35.8359 162.472 35.6602 162.407 35.4727C162.343 35.2852 162.296 35.0977 162.267 34.9102C161.962 35.2969 161.602 35.6074 161.186 35.8418C160.775 36.0703 160.292 36.1846 159.735 36.1846ZM160.421 34.2861C160.778 34.2861 161.118 34.207 161.44 34.0488C161.763 33.8848 162.012 33.6709 162.188 33.4072V31.9043H160.922C160.359 31.9043 159.932 32.0332 159.639 32.291C159.352 32.5488 159.208 32.8594 159.208 33.2227C159.208 33.5625 159.313 33.8262 159.524 34.0137C159.741 34.1953 160.04 34.2861 160.421 34.2861ZM174.65 36L171.776 28.1953L170.748 28.0371V26.4902H175.362V28.0283L174.36 28.2041L175.793 32.5195L176.013 33.2578H176.065L176.312 32.5195L177.885 28.2129L176.716 28.0283V26.4902H181.321V28.0371L180.267 28.2129L177.261 36H174.65ZM181.998 36V34.4619L183.237 34.1982V28.3008L181.866 28.0371V26.4902H185.804V34.1982L187.034 34.4619V36H181.998ZM183.149 24.4775V22.2891H185.804V24.4775H183.149ZM191.077 36.1846C190.134 36.1846 189.384 35.9326 188.827 35.4287C188.271 34.9189 187.992 34.2275 187.992 33.3545C187.992 32.458 188.355 31.7314 189.082 31.1748C189.809 30.6123 190.872 30.3311 192.272 30.3311H193.529V29.6279C193.529 29.1709 193.395 28.8018 193.125 28.5205C192.861 28.2334 192.463 28.0898 191.93 28.0898C191.654 28.0898 191.408 28.125 191.191 28.1953C190.975 28.2598 190.775 28.3535 190.594 28.4766L190.392 29.7334H188.546L188.511 27.2637C189.009 26.9824 189.548 26.7539 190.128 26.5781C190.708 26.4023 191.355 26.3145 192.07 26.3145C193.312 26.3145 194.294 26.6045 195.015 27.1846C195.735 27.7588 196.096 28.582 196.096 29.6543V33.5742C196.096 33.7031 196.096 33.832 196.096 33.9609C196.102 34.084 196.113 34.2041 196.131 34.3213L197.124 34.4619V36H193.942C193.878 35.8359 193.813 35.6602 193.749 35.4727C193.685 35.2852 193.638 35.0977 193.608 34.9102C193.304 35.2969 192.943 35.6074 192.527 35.8418C192.117 36.0703 191.634 36.1846 191.077 36.1846ZM191.763 34.2861C192.12 34.2861 192.46 34.207 192.782 34.0488C193.104 33.8848 193.354 33.6709 193.529 33.4072V31.9043H192.264C191.701 31.9043 191.273 32.0332 190.98 32.291C190.693 32.5488 190.55 32.8594 190.55 33.2227C190.55 33.5625 190.655 33.8262 190.866 34.0137C191.083 34.1953 191.382 34.2861 191.763 34.2861ZM202.371 36V34.4619L203.61 34.1982V28.3008L202.239 28.0371V26.4902H206.177V34.1982L207.407 34.4619V36H202.371ZM203.522 24.4775V22.2891H206.177V24.4775H203.522ZM212.004 36.1846C211.119 36.1846 210.437 35.9414 209.956 35.4551C209.481 34.9688 209.244 34.1982 209.244 33.1436V28.292H207.935V26.4902H209.244V24.1611H211.802V26.4902H213.551V28.292H211.802V33.1348C211.802 33.5039 211.878 33.7676 212.03 33.9258C212.188 34.084 212.402 34.1631 212.672 34.1631C212.818 34.1631 212.971 34.1543 213.129 34.1367C213.293 34.1133 213.434 34.0898 213.551 34.0664L213.771 35.9209C213.507 35.9971 213.22 36.0586 212.909 36.1055C212.604 36.1582 212.303 36.1846 212.004 36.1846ZM218.815 36.1846C218.106 36.1846 217.444 36.1172 216.829 35.9824C216.22 35.8477 215.634 35.6543 215.071 35.4023L215.045 32.7129H216.829L217.172 34.084C217.371 34.1836 217.588 34.2627 217.822 34.3213C218.062 34.3799 218.335 34.4092 218.64 34.4092C219.214 34.4092 219.618 34.3154 219.853 34.1279C220.087 33.9404 220.204 33.7061 220.204 33.4248C220.204 33.1611 220.078 32.9297 219.826 32.7305C219.58 32.5254 219.085 32.3467 218.341 32.1943C217.216 31.96 216.387 31.5967 215.854 31.1045C215.32 30.6123 215.054 29.9824 215.054 29.2148C215.054 28.6875 215.186 28.207 215.449 27.7734C215.719 27.3398 216.126 26.9912 216.671 26.7275C217.222 26.4639 217.925 26.332 218.78 26.332C219.495 26.332 220.148 26.4023 220.74 26.543C221.338 26.6777 221.839 26.8564 222.243 27.0791L222.27 29.6807H220.494L220.222 28.4326C220.063 28.3154 219.876 28.2275 219.659 28.1689C219.448 28.1104 219.208 28.0811 218.938 28.0811C218.487 28.0811 218.142 28.1719 217.901 28.3535C217.661 28.5352 217.541 28.7695 217.541 29.0566C217.541 29.2207 217.582 29.373 217.664 29.5137C217.752 29.6543 217.922 29.7861 218.174 29.9092C218.426 30.0322 218.792 30.1494 219.272 30.2607C220.45 30.5303 221.309 30.8906 221.848 31.3418C222.387 31.7871 222.656 32.4141 222.656 33.2227C222.656 34.1074 222.334 34.8223 221.689 35.3672C221.051 35.9121 220.093 36.1846 218.815 36.1846ZM223.729 36V34.4619L224.968 34.1982V28.3008L223.597 28.0371V26.4902H227.35L227.455 27.7471C227.76 27.29 228.141 26.9385 228.598 26.6924C229.061 26.4404 229.594 26.3145 230.197 26.3145C230.807 26.3145 231.328 26.4492 231.762 26.7188C232.201 26.9883 232.529 27.3955 232.746 27.9404C233.039 27.4307 233.42 27.0322 233.889 26.7451C234.357 26.458 234.908 26.3145 235.541 26.3145C236.479 26.3145 237.217 26.6338 237.756 27.2725C238.301 27.9111 238.573 28.8838 238.573 30.1904V34.1982L239.812 34.4619V36H234.899V34.4619L236.007 34.1982V30.1816C236.007 29.4785 235.89 28.9922 235.655 28.7227C235.427 28.4473 235.093 28.3096 234.653 28.3096C234.255 28.3096 233.918 28.4238 233.643 28.6523C233.367 28.875 233.168 29.1709 233.045 29.54V34.1982L234.082 34.4619V36H229.45V34.4619L230.487 34.1982V30.1816C230.487 29.4961 230.37 29.0127 230.136 28.7314C229.907 28.4502 229.567 28.3096 229.116 28.3096C228.753 28.3096 228.439 28.3828 228.176 28.5293C227.912 28.6758 227.695 28.8867 227.525 29.1621V34.1982L228.633 34.4619V36H223.729ZM245.13 36.1846C244.222 36.1846 243.428 35.9854 242.748 35.5869C242.068 35.1826 241.541 34.6289 241.166 33.9258C240.797 33.2227 240.612 32.4199 240.612 31.5176V31.166C240.612 30.2227 240.788 29.3877 241.14 28.6611C241.491 27.9287 241.986 27.3545 242.625 26.9385C243.27 26.5225 244.028 26.3145 244.901 26.3145C245.763 26.3145 246.486 26.4844 247.072 26.8242C247.658 27.1641 248.104 27.6533 248.408 28.292C248.713 28.9307 248.865 29.7041 248.865 30.6123V32.0098H243.275L243.258 32.0625C243.293 32.4785 243.396 32.8506 243.565 33.1787C243.741 33.501 243.987 33.7559 244.304 33.9434C244.62 34.125 245.004 34.2158 245.455 34.2158C245.924 34.2158 246.36 34.1572 246.765 34.04C247.175 33.917 247.573 33.7383 247.96 33.5039L248.654 35.0859C248.262 35.4023 247.767 35.666 247.169 35.877C246.577 36.082 245.897 36.1846 245.13 36.1846ZM243.293 30.3135H246.466V30.085C246.466 29.6982 246.413 29.3672 246.308 29.0918C246.208 28.8105 246.044 28.5938 245.815 28.4414C245.593 28.2891 245.303 28.2129 244.945 28.2129C244.605 28.2129 244.318 28.3037 244.084 28.4854C243.85 28.6611 243.665 28.9043 243.53 29.2148C243.401 29.5254 243.313 29.877 243.267 30.2695L243.293 30.3135Z" fill="white"/>
<path fill-rule="evenodd" clip-rule="evenodd" d="M56.8599 19.3302L47.6698 10.1401C45.9847 8.45501 42.7231 7.58112 40.4216 8.19787L27.8677 11.5617C25.5658 12.1784 23.1784 14.5662 22.5617 16.8677L19.1979 29.4219C18.5811 31.7234 19.455 34.985 21.1398 36.6698L30.3299 45.8602C32.015 47.545 35.2766 48.4189 37.5781 47.8021L50.1324 44.4383C52.4339 43.8216 54.8216 41.4338 55.4381 39.1323L58.8022 26.5784C59.4189 24.2766 58.5447 21.015 56.8599 19.3302Z" fill="white"/>
<path fill-rule="evenodd" clip-rule="evenodd" d="M29.5736 19.8994L29.5189 24.959C29.5189 26.0972 30.2449 26.5202 31.0525 26.525C31.8137 26.5202 32.4942 26.1361 32.5707 25.1396L32.6216 17.1277C32.6245 16.647 33.0104 16.2587 33.485 16.2587H34.6538C35.1332 16.2587 35.5207 16.6538 35.5175 17.139L35.5082 18.5027C35.7458 18.3554 36.0199 18.2662 36.312 18.2662C37.1958 18.2662 37.8994 18.9789 37.8994 19.8741C37.8994 20.7516 37.1958 21.4639 36.312 21.4639C36.0068 21.4639 35.7282 21.3743 35.4903 21.2271L35.4637 24.959C35.4637 26.0738 36.1595 26.5033 36.9467 26.525C38.0307 26.525 38.5831 25.8967 38.5831 25.8967L38.5853 25.899C38.8274 25.6505 39.1649 25.4896 39.5646 25.4987H39.5671C40.0568 25.5094 40.5368 25.7608 40.7514 26.2068C40.9425 26.6039 41.347 26.8682 42.006 26.9195C42.7973 26.9811 43.3177 26.6788 43.3632 26.0777C43.4103 25.4566 43.0497 25.2272 41.5933 24.7514C39.4602 24.0212 38.0515 23.4484 38.2122 21.3247C38.3624 19.3415 39.9825 18.1777 42.5536 18.3775C44.0181 18.491 45.0563 19.0288 45.6884 19.8248C46.391 20.71 45.7082 22.0283 44.5874 22.0039C44.0901 21.9932 43.6367 21.7059 43.4189 21.2534C43.2479 20.8975 42.9065 20.6617 42.3442 20.6179C41.5731 20.5579 41.1529 20.8479 41.1107 21.4087C41.0559 22.1301 41.8197 22.29 43.0215 22.7062C45.0178 23.4049 46.4131 24.1584 46.2703 26.0417C46.1111 28.1453 44.4866 29.3691 41.8165 29.1615C40.8311 29.085 40.0168 28.8466 39.3779 28.4654C38.4595 28.9935 37.5436 29.1583 36.2966 29.1583C35.0589 29.1583 34.0377 28.8203 33.3783 28.1047C32.8704 28.7171 32.1304 29.1583 31.0525 29.1583C28.4746 29.1583 26.6032 28.0729 26.623 25.6619L26.6778 19.8897C26.6803 19.5725 26.9349 19.3169 27.2481 19.3169H29.0033C29.3203 19.3169 29.5765 19.5783 29.5736 19.8994ZM28.1924 18.0395C27.3083 18.0395 26.6226 17.3268 26.6226 16.4497C26.6226 15.5544 27.3444 14.8418 28.1924 14.8418C29.0763 14.8418 29.7798 15.5544 29.7798 16.4497C29.7798 17.3268 29.0763 18.0395 28.1924 18.0395ZM46.7327 29.8216C49.6885 29.8216 51.6323 31.7503 51.6323 34.9853V35.2169C51.6323 35.7326 51.2195 36.1507 50.7103 36.1507H44.5904C44.6499 37.4369 45.4236 38.2601 46.7327 38.2601C47.4949 38.2601 48.0537 38.0201 48.3765 37.5926L48.3794 37.5883C48.6628 37.1744 49.1543 36.9607 49.6472 37.0269C50.7587 37.1761 51.2346 38.5845 50.4071 39.3507C50.3629 39.3915 50.3129 39.4275 50.2662 39.4665C50.2633 39.4697 50.263 39.4759 50.2598 39.4785C50.229 39.5041 50.1941 39.5268 50.1621 39.5518C50.1336 39.5732 50.1054 39.5952 50.076 39.616C49.2232 40.2485 48.0489 40.6313 46.8122 40.6313C44.1802 40.6313 42.2396 39.1677 41.6833 36.7249V38.9624C41.6833 39.7529 41.0505 40.3938 40.2698 40.3938C39.4894 40.3938 38.8566 39.7529 38.8566 38.9624V34.7462C38.8566 33.452 38.2757 32.7263 37.1917 32.7263C36.1849 32.7263 35.5653 33.3932 35.4493 34.4127V38.9624C35.4493 39.7529 34.8166 40.3938 34.0358 40.3938C33.2554 40.3938 32.6226 39.7529 32.6226 38.9624V34.7462C32.6226 33.452 32.0225 32.7263 30.9965 32.7263C29.8738 32.7263 29.1958 33.5499 29.1958 34.7657V38.9624C29.1958 39.7532 28.5631 40.3938 27.7826 40.3938C27.0022 40.3938 26.3691 39.7532 26.3691 38.9624V35.4588L26.3746 35.452C26.3723 35.3515 26.3691 35.2529 26.3691 35.1449C26.3691 29.9017 30.398 30.0594 31.6738 30.0594C33.0486 30.0594 34.1521 30.6283 34.8102 31.6673C35.3911 30.7454 36.3783 30.0594 37.8886 30.0594C40.054 30.0594 41.5213 31.4529 41.6686 33.7861C42.2037 31.2965 44.1449 29.8216 46.7327 29.8216ZM44.5904 34.2016H48.7163C48.6567 32.9359 48.022 32.112 46.7126 32.112C45.4829 32.112 44.6698 32.8755 44.5904 34.2016Z" fill="#FF4612"/>
</g>
<defs>
<clipPath id="clip0_815_2965">
<rect width="269" height="56" fill="white"/>
</clipPath>
</defs>
</svg>
